<?xml version="1.0" encoding="UTF-8"?>
<svg version="1.1" viewBox="0 0 800 800" width="800" height="800" xmlns="http://www.w3.org/2000/svg">
<path transform="translate(373,23)" d="m0 0h11l11 4 10 9 5 10 4 24v4l23 4 39 6 35 10 13 4 4 1h7l9-12 8-11 4-1 1-3 8-4h22l11 6 17 12 24 16 11 8 10 7 5 4 4 8 2 10-1 10-4 9-11 15-4 7 7 12 2 4 4 2 8 11v2l3 1 9 14 5 7 5 9 6 10 3 7 10 18 1 1h11l18-3h7l14 4 11 11 3 7 4 24 7 37 2 15v12l-3 10-4 5-9 7-16 4-21 4-1 6-2 8-3 27-6 25-3 9-3 12-7 18-1 9 11 8 12 8 4 4v2l3 1 3 9 1 11-3 12-4 6-6 8-4 6h-2l-2 5-7 10h-2l-2 5-7 10h-2l-2 4-7 10-8 8-11 4h-16l-10-4-6-4-1-2-8-4-4-4h-6l-4 1v2l-10 6-5 5-5 3h-2l-1 3-10 6-8 5-9 6-26 13-10 4-8 6-2 1 1 10 3 16v9l-3 9-6 8-7 6-16 4-27 5-16 2-28 5h-11l-10-4-8-6-6-8-3-10-2-15-1-8-15-3-47-7-20-6-12-3-10-4-17-3v2h-2l-2 5-5 6-2 4h-2l-2 4-5 5-7 5-3 1h-22l-14-8-11-8-16-11-22-15-11-8-6-7-3-9v-14l4-10 7-9 8-12-2-5-5-8-8-9-9-12-7-10-7-11-11-19-8-16-6-9h-11l-17 3h-8l-13-4-10-8-5-10-3-20-8-42-2-15v-10l3-10 4-6 9-7 17-4 19-4 4-12 2-22 6-27 7-25 7-18 2-11-5-2-11-8-10-7-5-6-3-9v-15l3-9 2-3h2l2-5 7-10h2l2-4 7-10 8-11 15-20 7-7 11-4h16l12 5 4 3v2l6 2 7 6h6l15-10 6-5 5-2 1-3 10-6 8-5 9-6 5-2 10-6 15-7 8-3 8-6-1-11-3-16 1-11 3-7 6-8 9-6 29-6 33-5zm13 128-26 3-26 5-18 6-13 4-20 9-17 9-22 14v2l-5 2-13 11-4 3v2l-4 2-5 5-4 5-5 5-4 3-3 5-7 8-6 9-7 11-10 17-4 10-6 13-8 26-5 24-1 19v25l1 19 5 25 9 30 7 15 4 9 9 16 7 11 7 10 9 11 7 8 11 12 5 5 8 6 4 4 7 5 1 2 7 4 10 7 17 10 17 9 16 6 9 3 22 7 23 4 13 2 12 1h27l26-3 23-4 32-10 33-15 10-6 4-2v-2l5-2 6-4 5-4 5-3 7-6 5-4v-2l4-2 7-6 6-7 5-5 8-10 3-3 4-6 4-5v-2h2l4-8 7-11 8-16 5-12 10-30 5-33 1-14v-16l-2-22-4-25-7-22-6-17-11-23-8-13-7-10-9-13-6-7-7-8-9-10-5-4h-2l-1-3-11-9-10-8-12-8-13-8-23-12-17-7-29-9-23-4-26-3z" fill="#9A80FE"/>
<path transform="translate(385,330)" d="m0 0h78l14 3 14 7 7 8 3 8 1 11-2 11-5 8-8 7-7 3 13 5 8 6 5 6 3 8 1 13-3 12-5 8-7 7-12 6-13 3h-85l-1-3v-58h-58v58h-29v-136h29v54h58v-54zm30 22v34h40l10-3 5-6 1-3v-10l-4-7-9-4-10-1zm0 57v39h41l9-1 8-4 5-6 1-3v-11l-3-7-8-5-7-2z" fill="#9A80FE"/>
<path transform="translate(743,275)" d="m0 0h7l14 4 11 11 3 7 4 24 7 37 2 15v12l-3 10-4 5-9 7-16 4-15 3h-3l-2-30-5-92v-15z" fill="#E8E1FF"/>
<path transform="translate(291,333)" d="m0 0h3v19l-12 6-54 23-44 19 2 2 108 46v20l-10-3-29-13-39-17-41-18-11-5v-23l12-6 30-13 41-18 39-17z" fill="#9A80FE"/>
<path transform="translate(507,333)" d="m0 0 5 1 80 35 41 18 4 2v23l-36 16-30 13-41 18-21 9h-2v-20l53-23 45-19 12-5-3-2-25-11-82-35z" fill="#9A80FE"/>
</svg>
